<?xml version="1.0" encoding="UTF-8"?>
<svg id="Layer_1" data-name="Layer 1" xmlns="http://www.w3.org/2000/svg" viewBox="0 0 284.98 174.81">
  <defs>
    <style>
      .cls-1 {
        fill: #201f5c;
      }

      .cls-2 {
        fill: #252566;
      }

      .cls-3 {
        fill: #2a2f7e;
      }

      .cls-4 {
        fill: #7374b7;
      }
    </style>
  </defs>
  <path class="cls-2" d="M280.87,36.84l.25,1.99c-5.68-11.71-13.07-23.42-25.26-29.52-7.78-3.89-15.74-7.43-24.81-7.42l-180.73.06c-5.18,0-10.43,2.56-15.08,4.1-14.8,4.92-24.87,17.12-30.64,30.96l-1.8-.33c2.71-7.47,6.29-13.91,12.58-19.88C24.67,8.01,36.54.14,50.63.13L233.47,0c8.18,0,15.03,3.67,21.61,6.66,6.03,2.74,10.09,6.28,14.21,11.15,3.92,4.63,10.37,9.58,11.58,19.04Z"/>
  <path class="cls-2" d="M226.15,173.83l-169.04.04c-28.83,0-55.54-22.6-57.11-51.01l1.86-.34c1.93,24.32,21.22,43.49,44.59,47.92,5.6,1.06,9.21,1.47,14.89,1.46l168.72-.29c26.08-.04,53.01-23.67,52.87-52.93l-.34-70.02c-.02-3.53-2.22-6.73-1.46-9.85.26-.07.73-.04,1.27-.03l2.59,12.27-.44,72.33c-1.98,29.2-28.7,50.42-58.39,50.43Z"/>
  <path class="cls-4" d="M226.15,173.83c.03.34-.28.97-1.2.97H58.36c-.93,0-1.23-.64-1.24-.94l169.04-.04Z"/>
  <path class="cls-3" d="M282.4,38.8c-.54-.02-1.01-.05-1.27.03l-.25-1.99c.69.16,1.36,1.19,1.52,1.96Z"/>
  <path class="cls-3" d="M281.13,38.83c-.76,3.12,1.44,6.32,1.46,9.85l.34,70.02c.14,29.26-26.79,52.89-52.87,52.93l-168.72.29c-5.67,0-9.29-.4-14.89-1.46-23.36-4.43-42.65-23.6-44.59-47.92l-.54-71.6c-.04-4.71,1.75-10.24,3.29-13.92,5.77-13.84,15.84-26.04,30.64-30.96,4.65-1.54,9.9-4.1,15.08-4.1l180.73-.06c9.07,0,17.03,3.54,24.81,7.42,12.19,6.1,19.59,17.81,25.26,29.52ZM222.43,127.76c6.58,0,7.95-5.1,7.92-9.96l-.4-68.9c-.89-2.8-5.71-5.08-8.98-5.08l-155.57.1c-4.04,0-9.89,1.78-9.92,6l-.36,68.87c-.03,5.49,3.69,8.87,9.3,8.88l158,.09Z"/>
  <path class="cls-1" d="M222.43,127.76l-158-.09c-5.62,0-9.33-3.38-9.3-8.88l.36-68.87c.02-4.22,5.88-5.99,9.92-6l155.57-.1c3.28,0,8.09,2.28,8.98,5.08l.4,68.9c.03,4.86-1.35,9.96-7.92,9.96ZM61.15,46.81h-4v79h172V46.81h-5c.03-.37-.28-1-1.2-1H62.35c-.92,0-1.23.64-1.2,1Z"/>
  <path class="cls-4" d="M224.15,46.81H61.15c-.03-.37.28-1,1.2-1h160.6c.92,0,1.23.64,1.2,1Z"/>
</svg>