<?xml version="1.0" encoding="UTF-8"?>
<svg id="Layer_1" data-name="Layer 1" xmlns="http://www.w3.org/2000/svg" viewBox="0 0 1352.68 298.73">
  <defs>
    <style>
      .cls-1 {
        fill: #010380;
      }

      .cls-2 {
        fill: #08096d;
      }

      .cls-3 {
        fill: #010262;
      }

      .cls-4 {
        fill: #00038d;
      }

      .cls-5 {
        fill: #00038e;
      }

      .cls-6 {
        fill: #7174c7;
      }
    </style>
  </defs>
  <path class="cls-5" d="M1067.88,122.04c-.41.06-1.03-.34-1.03-1.1V52.15c0-.76.62-1.16.9-1.09l.13,70.98Z"/>
  <g>
    <g>
      <g>
        <path class="cls-2" d="M510.85.05c.1.69.89,1.05,1.88,1.04l12.34-.14c23.94-.28,46.84,18.81,48.16,44.52l.18,83.21c.02,10.16-5.64,20.1-11.66,26.98-10.38,11.86-23.93,18.56-38.88,18.51l-51.93-.17c-.73,0-1.16.69-1.1,1.05-1.11,0-.99-1.19-.99-1.92.37-.07.83-.35,1.02-1.16l-.02-45.9,30.72-.32,15.29.16.03-71.87c0-2.5-1.32-6.75-4.08-6.77l-28.96-.23c-.87,0-1-.62-1-.99l.02-46h28.99ZM471.58,172.23l55.19-.14c22.88-1.96,44.3-22.61,44.44-45.12l.46-72.95c.05-8.65-.96-16.17-4.52-24.14-7.91-17.7-25.48-27.45-44.73-27.6l-38.49-.3c-1.88,2.35-.65,4.96-.45,7.49.9,11.59.24,22.89-.09,34.9l26.79.44c6.39.1,8.05,5.8,8.04,11.24l-.13,66.17c0,2.01-.45,4.16-1.55,4.93-1.24.86-2.92,1.14-4.65.85l-40.8.18.49,44.06Z"/>
        <path class="cls-6" d="M522.87,174.16c.04.26-.36.88-1.1.88h-51.93c-.07-.35.37-1.05,1.1-1.05l51.93.17Z"/>
        <path class="cls-5" d="M468.85,173.12l-.02-46.06c0-.91.68-1,1.02-1l.02,45.9c-.19.81-.65,1.09-1.02,1.16Z"/>
        <path class="cls-5" d="M481.85,46.04c-.38.06-1-.35-1-1.07V1.11c0-.72.61-1.13,1.01-1.07l-.02,46Z"/>
        <path class="cls-5" d="M525.08.94l-12.34.14c-1,.01-1.78-.35-1.88-1.04l12.07-.02c1.04-.14,1.86.38,2.15.92Z"/>
        <path class="cls-5" d="M471.58,172.23l-.49-44.06,40.8-.18c1.73.29,3.41.02,4.65-.85,1.1-.77,1.55-2.91,1.55-4.93l.13-66.17c.01-5.44-1.65-11.14-8.04-11.24l-26.79-.44c.33-12.01,1-23.31.09-34.9-.2-2.53-1.42-5.14.45-7.49l38.49.3c19.25.15,36.81,9.9,44.73,27.6,3.56,7.97,4.57,15.49,4.52,24.14l-.46,72.95c-.14,22.52-21.57,43.16-44.44,45.12l-55.19.14Z"/>
      </g>
      <g>
        <path class="cls-3" d="M424.99,172.02c1.04.2,1.27,1.38.85,2.89l-54.9-.87c-.74,0-1.14.61-2.03,1.03l-.05-104.02c.67-.11,1.05-.86,1.05-1.95v-27.11c0-1.09-.37-1.83-1.05-1.94v-2c.67-.11,1.05-.86,1.05-1.94V12.98c0-1.08-.38-1.83-1.05-1.94l.04-10.01h55.94s.15,170.98.15,170.98ZM370.77,1.96l-.29,170.72,53.36.09.29-170.72-53.36-.09Z"/>
        <path class="cls-5" d="M424.99,172.02l-.15-170.97h-55.94c-.1-.39.3-1.01,1.05-1.01h55.92s-.88,171.98-.88,171.98Z"/>
        <path class="cls-6" d="M425.83,174.91l-56.93.16c.89-.41,1.3-1.03,2.03-1.03l54.9.87Z"/>
        <path class="cls-2" d="M368.85,71.04v-31c.68.12,1.05.86,1.05,1.94v27.11c0,1.09-.37,1.83-1.05,1.95Z"/>
        <path class="cls-2" d="M368.85,38.04V11.04c.67.11,1.05.86,1.05,1.94v23.12c0,1.08-.38,1.83-1.05,1.94Z"/>
        <rect class="cls-5" x="311.94" y="60.68" width="170.72" height="53.36" transform="translate(309.26 484.52) rotate(-89.9)"/>
      </g>
      <g>
        <path class="cls-2" d="M231.18,174.09l-173.33.06c-29.27,0-53.58-20.29-57.85-50.52V49.42C3.19,23.04,21.89,4.46,48.11.05l191.29.05c27.49,4.28,45.29,20.74,49.33,48.32l-.04,74.27c-1.39,14.44-7.48,26.6-18.08,36.19-10.94,9.67-24.61,15.22-39.43,15.23ZM278.26,146.87c5.05-7.71,8.51-16.08,8.48-25.08l-.3-71.48c-.11-25.58-25.13-48.07-48.72-48.09l-189.35-.13C21.09,6.26,1.97,27.74,1.96,55.09v65.67c2.48,26.89,20.84,46.19,47.71,51.13l176.05.38c21.03.05,40.66-7.27,52.54-25.39Z"/>
        <path class="cls-6" d="M231.18,174.09c-.3.31-.6.95-1.53.95H59.06c-.93,0-1.23-.64-1.21-.9l173.33-.06Z"/>
        <path class="cls-4" d="M278.26,146.87c-11.88,18.12-31.51,25.44-52.54,25.39l-176.05-.38c-26.88-4.94-45.23-24.23-47.73-51.13V55.09c.02-27.35,19.14-48.83,46.42-53l189.35.13c23.59.02,48.61,22.51,48.72,48.09l.3,71.48c.04,9.01-3.42,17.37-8.48,25.08ZM231.02,124.05c-.06-.93.96-1.99,1.83-2.04l.23,1.52c.2,1.32.42-.21,1.72-1.92l.09-69.53c-.5-1.09-1.47-.97-2.02-1.09-.8-.17-.89-1.35-1.07-1.9.69.41,1.96-.13,1.83-.68-1.7-2.45-4.91-4.25-8.4-4.26l-160.21-.06c-5.41,0-9.21,2.68-9.2,7.94l.15,68.85c0,2.97,3.64,7.12,6.94,7.12l163.58-.12c1.53,0,2.84-.6,3.65-1.04.92-.51.93-1.82.87-2.8Z"/>
        <path class="cls-3" d="M231.82,49.09c-.24-.72-1.46-1.51-1.96-2.04-.24-.26-.59-1-1.01-1H63.06c-.99-.01-1.26.72-1.23,1.03-2.11,0-3.99,2.64-3.99,5v68.78s2,4.19,2,4.19c.27.57.83,1.07,1.92,1.06l17.09-.06h1s143-.02,143-.02c2.77,0,5.55-1.11,8.17-1.98.06.98.05,2.29-.87,2.8-.81.45-2.12,1.04-3.65,1.04l-163.58.12c-3.3,0-6.93-4.15-6.94-7.12l-.15-68.85c-.01-5.27,3.79-7.95,9.2-7.94l160.21.06c3.49,0,6.7,1.8,8.4,4.26.13.55-1.14,1.08-1.83.68Z"/>
        <path class="cls-3" d="M232.86,122.01l.03-71.02c.55.12,1.51,0,2.02,1.09l-.09,69.53c-1.3,1.71-1.52,3.24-1.72,1.92l-.23-1.52Z"/>
        <path class="cls-6" d="M228.85,46.05v.99s-167.02.04-167.02.04c-.02-.31.24-1.04,1.23-1.04h165.79Z"/>
        <path class="cls-5" d="M222.86,126.03l-143,.02c-.03-.37.29-1.01,1.18-1.01h140.64c.89,0,1.22.63,1.19.99Z"/>
        <path class="cls-5" d="M78.85,126.04l-17.09.06c-1.1,0-1.65-.5-1.92-1.06l17.97.02c.69,0,1.09.57,1.04.98Z"/>
        <path class="cls-4" d="M229.86,47.05l-1.01-.02v-.99c.42,0,.77.74,1.01,1Z"/>
      </g>
    </g>
    <g>
      <g>
        <path class="cls-3" d="M914.86,174.05h-52.93c-.74-.01-1.14.6-1.14,1-.82-.16-1.05-.84-.98-1.96l.04-54.06h-170s0,55.01,0,55.01h-56s-.27-58.88-.27-58.88c.26-16.72,22.57-38.76,43.51-38.8l182.73-.4.04-22.98c0-2.04-2.57-6.68-5.17-6.69l-220.82-.31V.03s228.76.05,228.76.05c3.37,0,5.92,2.06,9.33.73,22.38,4.27,39.77,21.49,42.87,44.37l.05,128.88ZM634.88,172.05l45.97.02c2.36.69,4.61,1.05,7.04,0l-.06-55.03,173.83.06-.04,55.47c17.47-.82,33.95-.74,51.39-.05l-.19-117.36c1.81-28.72-18.03-49.76-46.47-53.04l-231.51-.1v42.02s217.69.06,217.69.06c3.07.78,5.45,1.1,7.18,2.67,1.48,1.35,1.96,4.03,1.97,6.34l.07,22.95c0,1.28-2.57,2.01-4.1,2.01l-173.63-.15c-22.82-.02-42.73,12.62-47.91,34.34l-1.04,8.85-.21,50.93Z"/>
        <path class="cls-6" d="M854.68,46.29l-220.64.76c-1.15,0-1.19-.7-1.19-1.01l1.01-.06,220.82.31Z"/>
        <path class="cls-1" d="M633.85,174.04v1c-.24.13-1.21-.38-1.2-1.11l.92-58.78.27,58.89Z"/>
        <path class="cls-6" d="M689.86,174.04c0,.37-.12.97-1.03,1.03l-54.98-.03v-1s56,0,56,0Z"/>
        <path class="cls-6" d="M914.86,174.05c0,.33-.12,1.01-1.04,1h-53.03c0-.4.4-1.02,1.14-1.02h52.93Z"/>
        <path class="cls-1" d="M633.86,45.99l-1.01.06V1.12c0-.72.62-1.13,1-1.08v45.95Z"/>
        <path class="cls-5" d="M634.88,172.05l.21-50.93,1.04-8.85c5.17-21.72,25.09-34.36,47.91-34.34l173.63.15c1.52,0,4.1-.73,4.1-2.01l-.07-22.95c0-2.31-.49-4.99-1.97-6.34-1.73-1.57-4.1-1.89-7.18-2.67l-217.68-.06V2.01s231.51.1,231.51.1c28.44,3.29,48.27,24.32,46.47,53.04l.19,117.36c-17.44-.69-33.92-.76-51.39.05l.04-55.47-173.83-.06.06,55.03c-2.43,1.05-4.68.69-7.04,0l-45.97-.02Z"/>
      </g>
      <g>
        <path class="cls-2" d="M1348.57,37.08l.25,1.99c-5.68-11.71-13.07-23.42-25.26-29.52-7.78-3.89-15.74-7.43-24.81-7.42l-180.73.06c-5.18,0-10.43,2.56-15.08,4.1-14.8,4.92-24.87,17.12-30.64,30.96l-1.8-.33c2.71-7.47,6.29-13.91,12.58-19.88,9.27-8.79,21.15-16.67,35.24-16.68l182.84-.13c8.18,0,15.03,3.67,21.61,6.66,6.03,2.74,10.09,6.28,14.21,11.15,3.92,4.63,10.37,9.58,11.58,19.04Z"/>
        <path class="cls-2" d="M1293.85,174.07l-169.04.04c-28.83,0-55.54-22.6-57.11-51.01l1.86-.34c1.93,24.32,21.22,43.49,44.59,47.92,5.6,1.06,9.21,1.47,14.89,1.46l168.72-.29c26.08-.04,53.01-23.67,52.87-52.93l-.34-70.02c-.02-3.53-2.22-6.73-1.46-9.85.26-.07.73-.04,1.27-.03l2.59,12.27-.44,72.33c-1.98,29.2-28.7,50.42-58.39,50.43Z"/>
        <path class="cls-6" d="M1293.85,174.07c.03.34-.28.97-1.2.97h-166.59c-.93,0-1.23-.64-1.24-.94l169.04-.04Z"/>
        <path class="cls-3" d="M1072.31,37.25c-1.54,3.69-3.33,9.21-3.29,13.92l.54,71.6-1.86.34.18-1.07-.13-70.98c0-5.09,1.08-9.5,2.76-14.14l1.8.33Z"/>
        <path class="cls-4" d="M1350.1,39.04c-.54-.02-1.01-.05-1.27.03l-.25-1.99c.69.16,1.36,1.19,1.52,1.96Z"/>
        <path class="cls-4" d="M1348.83,39.06c-.76,3.12,1.44,6.32,1.46,9.85l.34,70.02c.14,29.26-26.79,52.89-52.87,52.93l-168.72.29c-5.67,0-9.29-.4-14.89-1.46-23.36-4.43-42.65-23.6-44.59-47.92l-.54-71.6c-.04-4.71,1.75-10.24,3.29-13.92,5.77-13.84,15.84-26.04,30.64-30.96,4.65-1.54,9.9-4.1,15.08-4.1l180.73-.06c9.07,0,17.03,3.54,24.81,7.42,12.19,6.1,19.59,17.81,25.26,29.52ZM1290.13,128c6.58,0,7.95-5.1,7.92-9.96l-.4-68.9c-.89-2.8-5.71-5.08-8.98-5.08l-155.57.1c-4.04,0-9.89,1.78-9.92,6l-.36,68.87c-.03,5.49,3.69,8.87,9.3,8.88l158,.09Z"/>
        <g>
          <path class="cls-3" d="M1028.85.04v99h-54V.04h54ZM1027.37,1.81l-50.98.06.12,95.67,50.98-.06-.12-95.67Z"/>
          <rect class="cls-4" x="976.45" y="1.84" width="50.98" height="95.67" transform="translate(-.06 1.24) rotate(-.07)"/>
        </g>
        <path class="cls-3" d="M1290.13,128l-158-.09c-5.62,0-9.33-3.38-9.3-8.88l.36-68.87c.02-4.22,5.88-5.99,9.92-6l155.57-.1c3.28,0,8.09,2.28,8.98,5.08l.4,68.9c.03,4.86-1.35,9.96-7.92,9.96ZM1128.85,47.04h-4v79h172V47.04h-5c.03-.37-.28-1-1.2-1h-160.6c-.92,0-1.23.64-1.2,1Z"/>
        <path class="cls-6" d="M1291.85,47.04h-163c-.03-.37.28-1,1.2-1h160.6c.92,0,1.23.64,1.2,1Z"/>
        <path class="cls-5" d="M1166.85,126.04h-31c.12-.68.86-1.05,1.94-1.05h27.11c1.09,0,1.83.37,1.95,1.05Z"/>
        <path class="cls-5" d="M1198.85,126.04h-31c.12-.68.86-1.05,1.94-1.05h27.11c1.09,0,1.83.37,1.95,1.05Z"/>
        <path class="cls-5" d="M1270.85,126.04h-30c.12-.68.86-1.05,1.94-1.05h26.11c1.09,0,1.83.38,1.94,1.05Z"/>
        <path class="cls-5" d="M1222.85,126.04h-23c.11-.67.86-1.05,1.93-1.05h19.13c1.08,0,1.83.39,1.94,1.05Z"/>
      </g>
    </g>
  </g>
  <g>
    <path class="cls-4" d="M46.84,241.44l.02,45.57-14.02.03v-43.98c0-1.29-.62-2.19-1.13-3.58-.3-.82-2.41-.85-3.43-1.69-1.14-.94-.98-4.89.52-4.87l11.06.15c8.22-1.48,15.72-1.36,24.01-.03,3.72.6,8.25-1.14,11.72,1.41,3.89,2.87,5.3,8.6,5.27,13.55l-.29,36.93h-22.38c-.64-.78-.77-2.65-.58-3.28,1.09-3.47,6.93-.83,12.2-3.62l.09-29.09c0-2.6-.7-6.46-3.08-7.79-5.94-3.32-19.36-2.24-19.88-1.61-.25.31-.1,1.15-.1,1.9Z"/>
    <path class="cls-1" d="M250.83,231.06l.17,45.57c2.55,2.18,6.82,1.71,9.63.14l.13,10.3-49.68-.02c-.45-3.35-.82-6.59.68-9.51l24.1.53c.87,0,1-.68,1-1.02l.03-32.01c0-2.29-1.77-3.97-4-3.97l-21.94-.04-.09-9.98,39.97.02Z"/>
    <path class="cls-1" d="M559.61,248.06c.28.38.37.92.11,1.18l-1.08,1.08c-.89.89-2.52,1.09-3.14,3.61,5.65-.56,10.15,1.12,13.51,4.63,3.71,3.87,4.54,9,3.83,14.68-1.29,10.21-11.18,14.85-20.87,15.14-7.99.24-17.61.28-23.96-3.37-.23-4.05-.56-7.51.31-11.6,9.62,4.64,23.6,6.62,29,1.38,2.26-2.19,2.64-5.31,2.01-7.51-.85-3-2.85-4.62-6.18-4.8l-13.09-.72c-4.14-2.96.64-7.85,3.03-10.24l9.92-9.93c-1.06-.58-1.91-.89-2.36-.95l-12.88-1.61c-2.07-.26-5.76,1.49-7.53-.36-1.08-1.14-.62-4.54.14-6.09l35.27-.31c1.47-.01,2.9.71,3.3,1.48,2.27,4.44-6.89,7.8-9.34,14.33Z"/>
    <path class="cls-4" d="M159.82,276.78c-.04-.36.02-.68.22-.9,1.18-1.36.87-2.76.51-4.44l-5.98-28c-1.65-7.74-7.43-3.24-8.39-7.95-.2-.96-.23-2.84,1.58-2.81l14.4.21,8.93,42.82c.72,3.46,3.16,3.96,5.9,3.87,6.63-.22,10.99-4.75,10.96-11.54l-.12-26.03c-.03-5.61-8.25-1.7-9.36-6.43-.58-2.48.86-3.34,3.38-3.23l15.79.71v34.03c0,10.61-8.84,17.85-16.78,17.93l-32.81.32c-.41-1.57-.37-3.27.04-4.11,3.64-1.65,7.7-1.32,11.53-1.13.43-1.37.33-2.27.21-3.32Z"/>
    <path class="cls-1" d="M596.13,298.16l-9.63-4.96c16.89-17.21,16.74-47.31-1.33-63.31l9.61-5.95c5.78,3.55,8.85,8.78,11.87,14.33,10.11,18.57,6.2,44.54-10.51,59.89Z"/>
    <path class="cls-4" d="M374.14,278.08c.53-.04,1.44.05,1.63.33.76,1.13,1.67,1.66,3.04,1.62l15.25-.43c2.09-.06,2.24,5.6.05,5.62l-35.37.36c-1.28-4.6,1.45-6.84,3.94-9.55l14.44-15.67c4.02-4.36,9.05-8.39,8.41-15.24-.75-8.11-14.5-8.23-24.36-1.31-1.79-4.87-.64-8.7,3.61-9.97,7.62-2.29,16.6-3.22,24.07.24,7.34,3.4,8.3,12.79,4.33,19.4-6.99,11.63-26.19,25.19-19.05,24.61Z"/>
    <path class="cls-2" d="M455.49,272.68c-.07,12.09-13.34,16.45-27.01,15.93-12.67-.48-18.93-10.38-18.93-22.77v-12.73c0-6.42.35-11.9,4.83-16.93,3.59-4.04,9.09-6.01,15.21-6.59,14.3-1.37,26.11,5.99,26.04,17.62l-.15,25.48ZM444.21,284.79c5.52-2.52,9.65-7.76,9.57-13.83l-.32-24.86c-.05-3.95-3.85-10.22-7.59-11.89-7.62-3.39-16.81-3.11-24.53-.58-5.62,1.85-9.19,8.71-9.56,14.34-1.24,18.55-2.21,37.15,16.03,38.33,5.65.37,10.91,1,16.41-1.51Z"/>
    <path class="cls-2" d="M147.89,230.02c.07.69.82,1.08,1.89,1.07l13.98-.02,9.5,45.34c2.4,1.2,6,.86,8.12-.04,1.85-.79,4.21-3.59,4.24-6.56l.32-29.71-10.08-.14c-.02-3.23-.07-6.27.72-9.2.45-.97,2.62-.74,3.53-.74-.3.42.11.99.8.99l19.01.04-.44,38.71c-.11,9.16-8.54,17.06-17.51,17.12l-36.01.23.02-9.14c5.01-.13,9.68.84,13.86-1.2.12,1.05.22,1.95-.21,3.32-3.83-.19-7.89-.52-11.53,1.13-.41.84-.45,2.54-.04,4.11l32.81-.32c7.94-.08,16.79-7.31,16.79-17.93v-34.03s-15.8-.71-15.8-.71c-2.52-.11-3.97.74-3.38,3.23,1.11,4.73,9.34.82,9.36,6.43l.12,26.03c.03,6.79-4.32,11.31-10.96,11.54-2.74.09-5.18-.41-5.9-3.87l-8.93-42.82-14.4-.21c-1.8-.03-1.77,1.85-1.58,2.81.96,4.71,6.74.21,8.39,7.95l5.98,28c.36,1.68.67,3.09-.51,4.44l-8.61-34.65c-.42-1.78-4.81-1.56-6.98-.84-1.02-2.87-.97-6.09-.22-9.07.4-1.6,2.66-1.29,3.66-1.29Z"/>
    <path class="cls-2" d="M467.74,268.42v-18.41c.01-8.91,5.13-18.68,15.17-19.71,5.38-.55,11.4-.69,16.74.12,8.71,1.33,14.75,9.64,14.79,18.03l.11,21.25c.07,13.77-12.92,19.79-27.93,18.86-11.01-.68-18.89-8.87-18.88-20.14ZM511.84,272.84c2.35-13.9,2.59-35.53-9.44-39.41-7.52-2.42-16.46-2.64-23.84.32-6.36,2.55-9.12,9.83-8.8,16.09-2.06,13.35-1.75,30.89,9.61,34.85,13.11,4.57,30.09,2.15,32.46-11.86Z"/>
    <path class="cls-1" d="M99.74,247.63c-3.86-4.5,7.2-7.24,8.18-15-3.54,1.81-9.36,1.41-9.81-2.78-.67-6.29,6.67-10.26,11.95-8.6,5.82,1.82,8.55,7.98,5.93,14.09-2.25,5.24-6.74,9.08-11.23,12.66-1.94,1.55-3.65,1.25-5.03-.36Z"/>
    <path class="cls-2" d="M374.14,278.08c-7.15.57,12.05-12.98,19.05-24.61,3.97-6.61,3.02-15.99-4.33-19.4-7.47-3.46-16.45-2.53-24.07-.24-4.25,1.27-5.4,5.1-3.61,9.97,9.86-6.92,23.6-6.8,24.36,1.31.64,6.85-4.4,10.88-8.41,15.24l-14.44,15.67c-2.5,2.71-5.22,4.96-3.94,9.55l35.37-.36c2.19-.02,2.04-5.68-.05-5.62l-15.25.43c-1.37.04-2.29-.49-3.04-1.62l15.01-.61c1.55-.05,4.99-1.98,6.34.08,1.49,2.28.76,6.15.57,9.2l-40.24.04c-1.82-4.16-.73-9.59,3.95-11.61,2.2-.95,2.11-3.29,3.3-4.6,7.97-8.75,22.69-20.83,18.09-27.27-3.88-5.44-15.01-2.33-23.44,3.93l-1.55-12.27c10.49-6.9,24.71-8.1,34.11-1.69,7.79,5.31,6.24,18.95-.11,25.56l-17.65,18.91Z"/>
    <path class="cls-3" d="M70.81,231.06c7.35,0,11.41,6.23,11.51,12.95l-.51,43.05h-25.82s.01-8.98.01-8.98l10.7.02c.58,0,2.26.26,2.23-1.01l-.76-29.94c-.08-3.17-2.79-6.08-6.31-6.09l-15.01.38c0-.74-.16-1.59.1-1.9.52-.63,13.94-1.71,19.88,1.61,2.38,1.33,3.09,5.19,3.08,7.79l-.09,29.09c-5.27,2.79-11.12.15-12.2,3.62-.19.62-.06,2.5.58,3.28h22.38s.29-36.94.29-36.94c.04-4.95-1.37-10.68-5.27-13.55-3.46-2.55-8-.81-11.72-1.41-8.29-1.33-15.79-1.46-24.01.03l-11.06-.15c-1.5-.02-1.66,3.93-.52,4.87,1.02.84,3.13.88,3.43,1.69l-5.83.48-.02-8.92,44.94.03Z"/>
    <path class="cls-2" d="M350.05,292.98l-8.57,5.75c-22.3-18.61-22.7-55.94-.8-74.92l9.16,5.44-6.01,7.56c-9.68,18.48-8.01,39.7,6.22,56.17ZM342.93,287.08c-3.49-7.64-6.99-15.46-7.11-23.89-.18-12.03,2.44-23.14,10.15-32.19.04-1.69-4.55-5.62-6.09-4.05-18.8,19.11-17.38,51.09,1.44,69.44,2.88-1.48,4.68-2.23,7-4.48-2.48-1.42-4.32-2.46-5.4-4.82Z"/>
    <path class="cls-2" d="M129.22,233.44c.58-.29,1.97-.28,2.13-.14l-5.67,11.69c6.46-2.08,10.56-8.44,10.69-14.84.07-3.26-1.53-5.36-3.73-6.42-4.29-2.05-10.38,1.33-10.08,4.81.18,2.11,1.82,2.88,4.31,2.85-1.16.48-1.98.62-2.41,1.7-2.25.48-3.69-1.32-4.24-3.08-1.55-4.95,6.03-9.93,10.98-8.9,2.39.5,6.18,2.79,6.59,5.56,1.06,7.15-.68,12.37-5.64,16.71-2.7,2.36-5.16,5.11-8.98,5.62-1.52-1.46-2.52-3-3.32-4.8,4.75-2.41,7.85-6.23,9.37-10.77Z"/>
    <path class="cls-4" d="M129.22,233.44c-1.22-1.46-3.18-.69-4.76-.35.42-1.08,1.25-1.22,2.41-1.7-2.49.03-4.13-.74-4.31-2.85-.3-3.49,5.79-6.86,10.08-4.81,2.21,1.06,3.8,3.15,3.73,6.42-.13,6.4-4.23,12.77-10.69,14.84l5.67-11.69c-.16-.14-1.55-.14-2.13.14Z"/>
    <path class="cls-3" d="M570.81,231.06c-.09,2.36.95,5.92-.8,8.11-1.62,2.03-5.73,2.78-6.63,5.2s-1.27,3.9-3.77,3.68c2.45-6.54,11.61-9.9,9.34-14.33-.39-.77-1.83-1.49-3.3-1.48l-35.27.31c-.76,1.55-1.22,4.96-.14,6.09,1.77,1.86,5.46.11,7.53.36l12.88,1.61-22.72.42-.17-8.16c-.02-.92.24-1.85,1.04-1.85l42.01.03Z"/>
    <path class="cls-5" d="M70.81,231.06l-44.94-.03c-.08-.38.34-1,1.06-1h42.86c.72,0,1.13.61,1.02,1.02Z"/>
    <path class="cls-6" d="M81.8,287.06l.51-43.05.62,42.01c.01.91-.8,1.04-1.13,1.04Z"/>
    <path class="cls-5" d="M570.81,231.06l-42.01-.03c0-.38.41-.99,1.12-.99h39.87c.71,0,1.13.61,1.02,1.02Z"/>
    <path class="cls-5" d="M250.83,231.06l-39.97-.02c-.07-.39.35-1,1.06-1h37.87c.71,0,1.13.61,1.04,1.01Z"/>
    <path class="cls-5" d="M66.7,278.09c.63-.78,1.01-1.75,1.18-3.04l.28-27.91.76,29.94c.03,1.27-1.64,1.01-2.23,1.01Z"/>
    <path class="cls-5" d="M236.86,277.04c0,.34-.13,1.02-1,1.02l-24.1-.53,25.1-.49Z"/>
    <path class="cls-5" d="M199.9,231.06l-19.01-.04c-.69,0-1.1-.57-.8-.99h18.65c1.04-.01,1.16.69,1.15,1.03Z"/>
    <path class="cls-5" d="M467.74,268.42c-.55-.48-.94-1.23-.94-2.3v-14.14c0-1.07.39-1.82.95-1.97v18.41Z"/>
    <path class="cls-5" d="M163.76,231.08l-13.98.02c-1.07,0-1.82-.39-1.89-1.07l14.02-.07c1.33,0,1.71.4,1.86,1.13Z"/>
    <path class="cls-3" d="M558.64,250.31l1.08-1.08-1.08,1.08Z"/>
    <path class="cls-4" d="M444.21,284.79c-5.5,2.51-10.76,1.88-16.41,1.51-18.23-1.18-17.27-19.78-16.03-38.33.38-5.62,3.94-12.49,9.56-14.34,7.72-2.54,16.91-2.82,24.53.58,3.75,1.67,7.54,7.94,7.59,11.89l.32,24.86c.08,6.07-4.05,11.3-9.57,13.83ZM441.81,268.48l.06-19.51c.02-5.29-4.69-9.01-9.41-8.78s-8.55,3.75-8.52,8.94l.11,20.68c.03,5.5,4.45,8.48,9.25,8.29s8.48-3.62,8.5-9.61Z"/>
    <path class="cls-4" d="M511.84,272.84c-2.37,14-19.35,16.43-32.46,11.86-11.36-3.96-11.67-21.51-9.61-34.85-.32-6.26,2.44-13.54,8.8-16.09,7.37-2.96,16.32-2.75,23.84-.32,12.03,3.88,11.79,25.51,9.44,39.41ZM498.93,241.46c-3.74-3.52-8.11-3.95-12.53-2.38-3.17,1.12-6.21,4.8-6.2,9.23l.04,21.2c.01,7.03,5.73,11.4,12.07,10.61,14.96-1.87,10.98-34.55,6.62-38.66Z"/>
    <path class="cls-4" d="M342.93,287.08c1.08,2.36,2.92,3.4,5.4,4.82-2.33,2.25-4.13,3-7,4.48-18.83-18.35-20.24-50.32-1.44-69.44,1.54-1.57,6.13,2.36,6.09,4.05-7.72,9.05-10.33,20.16-10.15,32.19.12,8.43,3.62,16.25,7.11,23.89Z"/>
    <g>
      <path class="cls-1" d="M1308.92,231.1c4.89,0,11.62,4.37,11.66,10.06l.35,45.88-29,.02v-9.02s15.76-.36,15.76-.36v-28.38c-.01-4.85-2.9-8.34-7.79-8.33l-16.03.05c-.35,0-1.03.12-1.03,1.02l.02,45.01-12.98-.07-.15-46.34c-2.58-.81-4.43-.59-6.81-.53l-.05-9.07,46.05.06Z"/>
      <path class="cls-1" d="M958.87,229.94c-.08.49.34,1.09,1.05,1.09l38.96-.21c6.24.14,11.66,5.3,11.71,11.44l.35,44.7-14.11.04.07-38.02c0-4.58-3.38-8.01-8-7.99l-13.05.07v46.02s-24.91-.02-24.91-.02l-.03-9.06,10.84-.41-.17-36.37c0-1.72-4.7-1.56-6.17.19-1.1-3.93-.45-7.24-.52-11.25l3.98-.23ZM963.85,241.04h-1v35h1v-35Z"/>
      <path class="cls-4" d="M892.72,241.92c-5.37-1.42-11.61-.85-17.85-.74l-.04,45.58c-.29.26-1.08.21-1.53.21l.08-46.01-.7,40.93c-.03,1.6-.81,3.42-2.75,3.41l-16.34-.11c-1.28,0-1.25-2.54-.61-3.52.46-.71,1.45-1.49,2.98-1.81l6.55-1.39.26-37.24c.01-1.49-.99-2.73-1.76-3.06-.9-.38-2.91-.39-4.27-.27-2.6.22-2.44-3.18-1.76-4.36.93-1.62,3.23-.85,4.83-.84l32.98.05c4.02,0,8.14-.7,10.94,1.99s3.79,6.73,3.82,10.89l.35,39.18c-3.63.46-6.55.83-10.5.13l.09-39.31c0-1.29-1.39-2.71-2.03-3.65-.58-.86-1.74-.97-2.75-.08Z"/>
      <path class="cls-1" d="M756.86,231.06v56.02s-29.91.02-29.91.02l-.02-9.05,15.76-.34.22-36.66-9.95-.68c-1.02-.07-2.42.57-3.07.25-3.28-1.64-.58-4.67-1.05-9.58l28.02.02Z"/>
      <path class="cls-1" d="M1142.17,231.29c5.63.06,8.77,6.48,8.76,11.65l-.12,44.02-13.95.07-.07-38.99c0-1.95-1.21-6.13-3.23-6.62l-23.7-.45.07-10.02,32.24.34Z"/>
      <path class="cls-1" d="M819.22,230.03c-.42.42,0,1,.68,1l20.98.4-.02,55.59-13.98-.05-.16-46.38c-3.6-.94-6.4-.48-9.8-.48l.1-9.84c.36-.36,1.7-.23,2.2-.23Z"/>
      <path class="cls-1" d="M1251.85,231.06v56s-13.96-.06-13.96-.06l.02-46.88-10.01-.14c1.49-3.06,1.01-6.03.88-8.94l23.07.02Z"/>
      <path class="cls-4" d="M791.8,241.71c-.49.31-.87.17-.87.12-.48-2.51-2.56-1.64-3.95-1.82-6.15-.79-11.03-1.39-16.86-.86-.36-2.08-.31-3.99.19-5.28.4-1.03,3.02-1.63,4.47-1.4,5.43.86,9.92-.44,14.98.05l7.84.77c6.83.67,9.75,7.46,9.75,13.56l.04,26.61c0,6.78-5.86,11.47-12.68,11.49l-24.52.07c-.19-1.25-.07-2.64.29-3.32,5.94-2.73,11.85-2.7,18.56-2.58,2.69.05,7.52-3.3,7.52-6.21v-26.65c.01-2.78-2.62-5.94-4.76-4.57Z"/>
      <path class="cls-2" d="M1204.85,265.05c.57-.08,1.22-.85,1.1-2.02-.76-7.13,1.17-14.58-.92-20.99-.99-3.03-6.29-2.15-8.99-1.78l-.86-8.91c.13-1.43,2.83-1.34,3.89-1.34-.26.45.15,1.01.83,1.02l19.11.04-.77,41.29c-.15,8-7.92,14.4-15.38,14.47l-37.9.32v-9.12c4.66-.24,8.83.74,13.44-.46l-8.31-36.58c-3.62.1-7.43.78-9.72-1.34-1.14-1.06-.47-3.51-.48-4.59.98.19,1.67-.44,1.27-1.53-.22-.6-.35-1.44-1.3-1.46l.07-.98c5.91-.44,13.19.92,18.78-.76.79-.24,2.95-.91,3.29.61l9.45,43.52c.21.96.7,2.7,1.35,3.14-.07-.05,9.58.56,11.47-4.11,1.13-2.81.6-5.83.6-8.41ZM1197.8,237.42c1.42,1.7,5.67-.41,8.05,1.07.73.45,1.31,2.07,1.29,3.53l-.32,29.05c-.06,5.57-5.54,8.11-10.29,8.77-3.29.46-6.08-.15-6.82-3.71l-8.77-42.23c-.59-2.82-6.96-.41-15.67-1.41-2.52-.29-3.58,1.45-3.56,3.04.08,4.96,9.18.31,10.69,7.18l7.83,35.44c-3.62,4.39-12.05-.2-13.42,2.4-.55,1.04-.5,2.8.36,4.98l33.67-.43c8.17-.1,15.58-5.94,15.65-14.32l.33-38.61c-11.89,1.41-24.75-1.6-19.03,5.26Z"/>
      <path class="cls-4" d="M1031.9,247.03c0-1.96,0-4.43-.87-5.96-.15-.56.21-1.81-.31-2.36-1.49-1.58-6.41.61-7.76-1.25-.69-.95-.42-5.01.78-4.99l20.11.5.02,51.93-10.52.1.53-35.03c.01-.88.06-1.57-.15-2.31-.16-.57-1.06-.98-1.83-.64Z"/>
      <path class="cls-2" d="M1061.25,230.02c-.45.42-.04,1,.65,1l22.87-.3c7.87,1.55,14.6,5.97,14.67,14.9l.2,27.48c.05,6.36-6.35,13.59-12.7,13.67l-28.01.38-.08-9.13c6.69-.45,13.56.96,20.02-.71,3.57-.92,6.81-3.2,6.81-7.53l-.02-19.51c0-4.89-3.02-9.02-8.03-9.07l-18.71-.19.1-10.77c.23-.34,1.75-.25,2.23-.24ZM1061.01,280.59c-.99.83-.71,3.36-.3,3.94s1.92.87,3.1.86l20.06-.15c6.52-.05,12.64-4.36,13.31-11.12.96-9.67,1.31-19.74-.14-29.09-1.27-8.18-7.38-12.03-15.13-12.1l-20.24-.18c-1.95-.02-1.93,6.34.09,6.37l16.48.24c6.16.09,8.99,4.81,9.24,10.83.55,13.27,2.16,27.39-7.79,28.7l-6.92.91c-3.52.46-8.36-2.06-11.75.79Z"/>
      <path class="cls-3" d="M704.32,230.97c4.36,0,9.4,3.18,9.42,8.09l.16,47.93-13.96.02-.17-41.87c0-1.44-2.6-3.96-3.97-3.97l-31.85-.15-.18-8.13c-.02-.95.25-1.84,1.04-1.84l39.53-.08ZM701.51,268.38c-.19,5.88-1.79,11.21.44,16.6,3.22.74,6.47.7,10.21-.15l-.19-44.79c-.01-3.47-3.54-7.14-7.24-7.16l-37.94-.13c-1.6.88-1.67,5.89-.1,6.47h27.95c7.22,0,8.57,10.05,6.85,15.45-1.54,4.84.17,8.75.01,13.71Z"/>
      <path class="cls-3" d="M898.84,230.99c5.06,0,10.36,5.57,10.46,12.05l-.57,44.02-12.82-.07-.32-40.54c-.02-2.16-.88-4.63-2.87-4.53,1.01-.89,2.16-.78,2.75.08.64.93,2.03,2.36,2.03,3.65l-.09,39.31c3.95.7,6.87.33,10.5-.13l-.35-39.18c-.04-4.16-.94-8.11-3.82-10.89s-6.92-1.99-10.94-1.99l-32.98-.05c-1.6,0-3.9-.77-4.83.84-.68,1.18-.84,4.58,1.76,4.36,1.37-.12,3.37-.11,4.27.27.77.33,1.77,1.57,1.76,3.06l-.26,37.24-6.55,1.39c-1.53.33-2.52,1.1-2.98,1.81-.64.98-.67,3.51.61,3.52l16.34.11c1.94.01,2.72-1.81,2.75-3.41l.7-40.93-.08,46.01-23.58.04c1.35-2.82.85-5.12.35-7.76,3.13-2.76,10.58.27,10.59-2.44l.08-36.2c-2.97-.91-5.07-.62-7.82-.53l-.07-8.08c0-.85.64-.96,1-.96l44.98-.05Z"/>
      <path class="cls-3" d="M1045.54,230.59l-.79,56.47-12.92-.07.06-39.97c.78-.34,1.67.07,1.83.64.21.74.16,1.43.15,2.31l-.53,35.03,10.52-.1-.02-51.93-20.11-.5c-1.2-.02-1.47,4.03-.78,4.99,1.35,1.86,6.27-.33,7.76,1.25.52.55.16,1.79.31,2.36-3.52-1.24-7.08-1.21-11.05-.95l-.2-7.25c-.03-.91.18-1.84,1.02-1.84l24.74-.45Z"/>
      <path class="cls-2" d="M771.85,230.03c-.06.42.36.99,1.05.99l22.02-.42c7.5.19,14.46,6.38,14.53,15l.23,28.14c.04,4.81-7.75,13.31-13.83,13.34l-26.42.12c-1.21-2.93-1.11-6.18-.57-9.16,6.63-.51,13.54,1.02,19.93-.74,1.99-.55,4.05-1.38,5-2.88,1.06-1.67.99-3.68,1.2-5.25.12-.68,1.02-1.61.96-3.05l-.77-18.09c-.1-2.43-1.64-4.26-3.38-6.32,2.14-1.36,4.77,1.8,4.77,4.57v26.65c-.01,2.91-4.84,6.26-7.53,6.21-6.7-.13-12.61-.15-18.56,2.58-.36.67-.48,2.07-.29,3.32l24.52-.07c6.82-.02,12.69-4.71,12.68-11.49l-.04-26.61c0-6.1-2.93-12.89-9.75-13.56l-7.84-.77c-5.06-.5-9.54.81-14.98-.05-1.45-.23-4.07.36-4.47,1.4-.49,1.29-.55,3.2-.19,5.28,5.83-.53,10.71.06,16.86.86,1.39.18,3.47-.69,3.95,1.82l-4.1-.75-17.94-.06-.03-10.81c1.38-.35,2.16-.21,2.98-.19Z"/>
      <path class="cls-2" d="M679.6,253.46l.3,33.54h-14.14s.43-32.72.43-32.72c.03-2.22,4.29-.76,5.65-.68,1.83.11,4.67-1.42,7.76-.14ZM678.35,284.95l-.48-28.02c-3.07-1.67-6.96-1.57-10.33.04l-.02,28.08,10.83-.09Z"/>
      <path class="cls-6" d="M1044.75,287.06l.79-56.47.4,55.4c0,.94-.79,1.07-1.18,1.07Z"/>
      <path class="cls-5" d="M1308.92,231.1l-46.05-.06c-.1-.41.31-1,1.06-1h43.86c.72,0,1.13.62,1.13,1.06Z"/>
      <path class="cls-6" d="M1282.85,287.06l-.02-45.01c0-.9.68-1.02,1.03-1.02l.02,45c0,.89-.68,1.03-1.02,1.03Z"/>
      <path class="cls-5" d="M898.84,230.99l-44.98.05c-.06-.39.35-1,1.07-1h42.86c.72,0,1.13.61,1.05.95Z"/>
      <path class="cls-6" d="M908.73,287.07l.57-44.02.68,42.97c.01.91-.88,1.06-1.25,1.05Z"/>
      <path class="cls-5" d="M1142.17,231.29l-32.24-.34-.07,10.02c-.69-.04-1.06-.78-1.05-1.85l.13-9.09,30.96-.04c1.09,0,1.84.38,2.27,1.3Z"/>
      <path class="cls-5" d="M998.88,230.83l-38.96.21c-.71,0-1.13-.6-1.05-1.09l40.01.89Z"/>
      <path class="cls-5" d="M704.32,230.97l-39.53.08c.18-.69.92-1.05,2.02-1.05h35.09c1.11,0,1.84.37,2.43.97Z"/>
      <path class="cls-5" d="M756.86,231.06l-28.02-.02c.13-.67.88-1.04,1.96-1.04h24.12c1.09,0,1.83.38,1.95,1.06Z"/>
      <path class="cls-5" d="M1084.77,230.72l-22.87.3c-.69,0-1.1-.58-.65-1l23.53.7Z"/>
      <path class="cls-5" d="M1045.54,230.59l-24.74.45c.14-.63.91-1.09,2.01-1.07l22.73.61Z"/>
      <path class="cls-5" d="M794.92,230.61l-22.02.42c-.69,0-1.1-.58-1.05-.99l23.06.58Z"/>
      <path class="cls-5" d="M1251.85,231.06l-23.07-.02c.18-.67.93-1.05,2-1.05h19.13c1.08,0,1.83.39,1.94,1.07Z"/>
      <path class="cls-5" d="M1204.85,265.05l.17-23.01c2.09,6.4.17,13.85.92,20.99.12,1.17-.53,1.95-1.1,2.02Z"/>
      <path class="cls-5" d="M840.87,231.42l-20.98-.4c-.69,0-1.1-.57-.68-1h20.65c.88.01,1.01.7,1.01,1.39Z"/>
      <path class="cls-5" d="M794.99,269.16l.19-21.14.77,18.09c.06,1.44-.83,2.36-.96,3.05Z"/>
      <path class="cls-5" d="M1219,231.06l-19.11-.04c-.69,0-1.1-.57-.83-1.02h18.68c.98.01,1.27.73,1.27,1.05Z"/>
      <path class="cls-5" d="M788.79,277.3c-6.39,1.77-13.3.24-19.93.74.13-.72.74-1.09,1.89-1.09l18.03.34Z"/>
      <path class="cls-5" d="M1078.87,277.32c-6.46,1.67-13.34.26-20.02.71,0-.34.13-1.01.99-1.01l19.04.3Z"/>
      <path class="cls-5" d="M1178.7,230.31c-5.59,1.68-12.87.32-18.78.76.04-.69.79-1.08,1.87-1.08l16.91.32Z"/>
      <path class="cls-5" d="M1159.87,235.04l-.03-3c.95.02,1.08.86,1.3,1.46.4,1.1-.29,1.72-1.27,1.53Z"/>
      <rect class="cls-3" x="962.85" y="241.04" width="1" height="35"/>
      <path class="cls-4" d="M1197.8,237.42c-5.72-6.86,7.14-3.85,19.03-5.26l-.33,38.61c-.07,8.38-7.48,14.22-15.65,14.32l-33.67.43c-.86-2.17-.91-3.93-.36-4.98,1.37-2.6,9.8,1.99,13.42-2.4l-7.83-35.44c-1.52-6.86-10.62-2.22-10.69-7.18-.02-1.6,1.04-3.33,3.56-3.04,8.72,1,15.09-1.41,15.67,1.41l8.77,42.23c.74,3.55,3.53,4.17,6.82,3.71,4.75-.66,10.22-3.2,10.29-8.77l.32-29.05c.02-1.46-.57-3.07-1.29-3.53-2.38-1.48-6.63.63-8.05-1.07Z"/>
      <path class="cls-4" d="M1061.01,280.59c3.39-2.85,8.22-.33,11.75-.79l6.92-.91c9.96-1.31,8.35-15.43,7.79-28.7-.25-6.02-3.08-10.74-9.24-10.83l-16.48-.24c-2.02-.03-2.04-6.39-.09-6.37l20.24.18c7.75.07,13.86,3.92,15.13,12.1,1.45,9.35,1.1,19.41.14,29.09-.67,6.77-6.8,11.07-13.31,11.12l-20.06.15c-1.18,0-2.69-.28-3.1-.86s-.68-3.11.3-3.94Z"/>
      <path class="cls-4" d="M701.51,268.38c.16-4.96-1.55-8.87-.01-13.71,1.72-5.4.37-15.44-6.85-15.44h-27.95c-1.57-.58-1.51-5.58.1-6.47l37.94.13c3.7.01,7.23,3.68,7.24,7.16l.19,44.79c-3.74.85-6.99.89-10.21.15-2.23-5.39-.63-10.72-.44-16.6Z"/>
      <path class="cls-4" d="M678.35,284.95l-10.83.09.02-28.08c3.37-1.61,7.26-1.71,10.33-.04l.48,28.02Z"/>
    </g>
    <path class="cls-2" d="M498.93,241.46c4.36,4.11,8.35,36.79-6.62,38.66-6.35.79-12.06-3.58-12.07-10.61l-.04-21.2c0-4.42,3.02-8.1,6.2-9.23,4.43-1.57,8.79-1.15,12.53,2.38ZM499.88,265.05c2.29-3.6.53-10.15.35-14.07-.24-5.17-2.42-9.86-8.21-10.75-5.1-.79-9.95,3.09-9.91,9.11l.13,20.23c.02,3.89,2.93,7.1,5.62,8.05,3.92,1.38,7.85.06,10.21-3.39,1.94-2.84,1.83-6.19,1.82-9.17Z"/>
    <path class="cls-5" d="M499.88,265.05l.35-14.07c.18,3.91,1.95,10.47-.35,14.07Z"/>
  </g>
</svg>